<svg height="512" viewBox="0 0 54 60" width="512" xmlns="http://www.w3.org/2000/svg"><g id="015---Female-User" fill="none"><g id="Icons" transform="translate(1 1)"><path id="Shape" d="m46.88 43c-3.0871312 1.5732775-6.3499031 2.7749981-9.72 3.58-6.169 0-1.5 0-22.51.01-3.3875429-.8048791-6.66726933-2.0100191-9.77-3.59 7-8 1-23 3-32 .95-4.29 3.04-5.85 4.96-6.31 1.3483163-.28942304 2.7516247-.18174343 4.04.31 0 0 2.12-4 8.9-4.79 1.0273127-.14083302 2.0630794-.21099787 3.1-.21 11 0 14 7 15 11 2.24 8.94-4 24 3 32z" fill="#cad9fc"/><path id="Shape" d="m43.88 43c-3.0871312 1.5732775-6.3499031 2.7749981-9.72 3.58-2.346 0 .769 0-19.51.01-3.3875429-.8048791-6.66726933-2.0100191-9.77-3.59 7-8 1-23 3-32 .95-4.29 3.04-5.85 4.96-6.31.3547747.07387461.7026774.17757639 1.04.31 0 0 .1-.18.31-.48.9183652-.00456295 1.8298905.1580884 2.69.48 0 0 2.12-4 8.9-4.79.111 0 .645-.106 1.61-.16 9.77.61 12.54 7.14 13.49 10.95 2.24 8.94-4 24 3 32z" fill="#e8edfc"/><path id="Shape" d="m51.88 53.02c-2.3992368 1.4034143-5.0095772 2.4097292-7.73 2.98-13.912 3.5-35.7 2.3-44.14-2.98h-.01s.88-4.02 4.88-4.02c7.22 0 11.32-3.14 13.03-4.88.3326405-.3336083.5287751-.7793689.55-1.25.0482821-1.6016154-.1541629-3.2009313-.6-4.74 2.45 3.11 6.15 6.87 9.67 5.48 2.387-.911 4.784-3.476 6.37-5.48-.4381916 1.5167097-.6405562 3.091781-.6 4.67.0174648.4872031.2215375.9490517.57 1.29 1.7 1.73 5.85 4.91 13.13 4.91 4 0 4.88 4.02 4.88 4.02z" fill="#cad9fc"/><g fill="#e8edfc"><path id="Shape" d="m48.88 53.02c-2.3992368 1.4034143-5.0095772 2.4097292-7.73 2.98-10.989728 2.5876863-22.430272 2.5876863-33.42 0-5.812-1.453-7.56-2.98-7.73-2.98 0 0 .88-4.02 4.88-4.02 7.22 0 11.32-3.14 13.03-4.88.3326405-.3336083.5287751-.7793689.55-1.25.0482821-1.6016154-.1541629-3.2009313-.6-4.74 2.45 3.11 6.15 6.87 9.67 5.48 1.0093761-.4171484 1.9447533-.9945835 2.77-1.71-.1612649.7789286.049453 1.5885292.57 2.19 1.7 1.73 5.85 4.91 13.13 4.91 4 0 4.88 4.02 4.88 4.02z"/><path id="Shape" d="m41.79 48.39c-.038.189-2.919 1.63-2.99 8.65-2.5509589.4278435-5.1258218.6983544-7.71.81 4.832-2.719 5.444-11.342 5.58-11.56 1.5824514.9711348 3.311387 1.6802686 5.12 2.1z"/><path id="Shape" d="m20.67 57.85c-2.5820515-.139351-5.1553635-.4096989-7.71-.81-.07-6.9-2.94-8.52-2.99-8.62 1.8159944-.4162619 3.5520594-1.1255491 5.14-2.1l.03.05s.75 8.79 5.53 11.48z"/><path id="Shape" d="m37.55 27.72c.65 3.18-.29 6.03-3.16 9.78-1.39 1.82-4.01 5-6.86 6.11-3.76 1.49-7.715-2.91-10.16-6.11-2.87-3.75-3.81-6.6-3.16-9.78.68-3.26.02-3.25-.27-6.5v-.01c1.5271506-2.5087201 2.5274717-5.3021338 2.94-8.21.0208913.4830446.1083843.9608908.26 1.42.4717882 1.4743197 1.4401001 2.7394864 2.74 3.58.0345106-1.8548173.7458061-3.633056 2-5 1.7166768 2.3231021 3.8787043 4.2811647 6.36 5.76 2.88365 1.7620304 6.1342837 2.8364504 9.5 3.14-.3 2.59-.82 2.81-.19 5.82z"/></g></g><path id="Shape" d="m27.556 53.973c-4.3851227-.0339841-8.7602156-.4246054-13.082-1.168-8.568-1.514-11.292-3.785-11.474-3.785 0 0 .88-4.02 4.88-4.02 3.4079288.0591 6.772228-.7726678 9.76-2.413-3.383922-.8048776-6.6602219-2.0089849-9.76-3.587 7-8 1-23 3-32 .688-3.107 2.183-5.654 4.971-6.3-.5464336-.1142653-1.1027737-.17455502-1.661-.18l-.012.017c-3.655.063-5.508 2.894-6.298 6.463-2 9 4 24-3 32 3.09977814 1.5780151 6.376078 2.7821224 9.76 3.587-2.987772 1.6403322-6.35207119 2.4721-9.76 2.413-4 0-4.88 4.02-4.88 4.02.182 0 2.906 2.271 11.474 3.785 5.3110428.9022081 10.6963294 1.2933295 16.082 1.168z" fill="#fff" transform="translate(1 5)"/><path id="Shape" d="m13.062 4.872.635 1.9c-1.0476062.38784522-1.9341954 1.11698299-2.517 2.07-.6241996 1.04440271-1.071557 2.1847586-1.324 3.375l-1.956-.434c.30339823-1.4232898.84429338-2.78533135 1.6-4.029.8289824-1.33431307 2.0840468-2.34978063 3.562-2.882z" fill="#fff"/><g fill="#428dff"><path id="Shape" d="m.479 54.868c5.3 3.318 14.807 4.61 21.136 4.975 3.4854717.2057851 6.9798782.2114611 10.466.017.023 0 .047-.007.07-.009 6.333-.357 15.935-1.651 21.259-4.983.358088-.2242362.5366103-.6493274.446-1.062-.5867311-2.7750433-3.0198136-4.7718661-5.856-4.806-2.369448.0234621-4.7238408-.3789287-6.951-1.188 2.5255071-.7460985 4.9747551-1.7294807 7.315-2.937.2648603-.1462819.4492468-.4046183.5015078-.702642.0522611-.2980238-.0332238-.6036845-.2325078-.831358-6.633-7.581-.491-22.435-2.783-31.584-1.923-7.692-7.445-11.757-15.97-11.757-7.58 0-11.172 3.371-12.375 4.83-1.4535-.41888966-2.9976786-.40429243-4.443.042-.2777687.07640672-.5060666.27436325-.6210476.53850869s-.104303.56612677.0290476.82149131c.2347485.44209082.743138.66417461 1.227.536 1.245393-.36647186 2.5767197-.31341556 3.789.151l.007-.016c.4533567.19980857.9846178.03410979 1.244-.388.028-.046 2.805-4.515 11.143-4.515 7.61 0 12.33 3.446 14.03 10.243 2.119 8.456-3.695 22.828 2.423 31.411-2.5815162 1.1928471-5.2666943 2.1471531-8.022 2.851-.9929497-.5870727-1.9084156-1.2962648-2.725-2.111-.17102-.164204-.27446-.3864217-.29-.623-.0336587-1.4137229.1384763-2.8248257.511-4.189 2.693-3.422 4.593-6.833 3.722-11.066-.3841904-1.5002071-.3586345-3.0760397.074-4.563.421.022.84.047 1.277.047.5522847 0 1-.4477153 1-1s-.4477153-1-1-1c-6.7415469-.0293628-13.0863091-3.1912119-17.169-8.556-.1664469-.2486732-.4355085-.4097394-.7333139-.4389778-.2978055-.0292384-.5930544.0764241-.8046861.2879778-1.0000406 1.0419852-1.6982353 2.3360647-2.02 3.744-.7421331-.8476953-1.188876-1.9134912-1.273-3.037.0013266-.5257052-.4046197-.9626765-.929-1-.5208661-.0290196-.9792222.3407757-1.061.856-.5175168 3.8654132-2.1579565 7.4939905-4.718 10.436-.3787042.3926454-.3728476 1.0163551.0131628 1.40182.3860105.3854648 1.0097279.3904391 1.4018372.01118.042-.042.323-.329.732-.837.2796742 1.2045959.2490516 2.4604665-.089 3.65-.864 4.229 1.028 7.636 3.718 11.057.3818143 1.385549.5540564 2.8204506.511 4.257-.0130408.2217119-.1069769.4309332-.264.588-.8026998.8077024-1.7021906 1.5130536-2.678 2.1-2.7783315-.705432-5.4860291-1.6644571-8.089-2.865 6.142-8.589.53-22.9 2.428-31.438.08493457-.3515131-.02652885-.7214954-.29150357-.9675925-.26497473-.2460971-.64217195-.3299616-.98646123-.2193259s-.60202288.3985322-.6740352.7529184c-2.04 9.177 3.858 23.976-2.777 31.558-.198962.228213-.28381785.5342794-.23076934.8323615.0530485.2980821.23828876.5560805.50376934.7016385 2.36318284 1.2187895 4.8374294 2.2089569 7.389 2.957-2.2145173.7997628-4.55465122 1.1953738-6.909 1.168-2.83558565.0340501-5.26688856 2.0333893-5.848 4.809-.08903704.4119247.08973476.8354579.447 1.059zm14.454 2.309c-.173-3.8-1.19-6.018-2.085-7.246.8533157-.2822703 1.6848634-.6265204 2.488-1.03.343 2.09 1.244 5.989 3.438 8.721-1.312-.122-2.598-.267-3.841-.445zm23.5-8.33c.8099419.407283 1.6480997.755847 2.508 1.043-.9 1.222-1.943 3.454-2.115 7.306-1.245.176-2.535.319-3.848.438 2.222-2.759 3.122-6.709 3.455-8.787zm13.243 4.719c-3.4237596 1.6461514-7.0772538 2.7638455-10.836 3.315.271-4.166 1.7-5.886 2.246-6.4 1.6145727.3491934 3.2621031.5232 4.914.519 1.6427921-.0020784 3.1115931 1.0232054 3.676 2.566zm-35.487-24.642c.693-3.32.08-3.636-.217-6.463.8958809-1.524358 1.6100827-3.1484287 2.128-4.839.5879914.8784415 1.3462971 1.6299462 2.23 2.21.3066863.2019718.6993994.2196042 1.0229519.0459296.3235525-.1736747.5258872-.5107134.5270481-.8779296.0450575-1.1890034.3834338-2.3484147.985-3.375 3.7366595 4.442776 8.9855257 7.3452369 14.735 8.148-.4559724 1.6838532-.4680306 3.4571015-.035 5.147.583 2.851-.278 5.45-2.974 8.973-2.368 3.1-4.531 5.046-6.438 5.788-.8238317.3264898-1.7411683.3264898-2.565 0-1.9-.74-4.061-2.686-6.429-5.786-2.69-3.524-3.552-6.124-2.97-8.971zm3.433 16.9c.941-.957.9-2.039.812-3.405 4.626 4.612 8.18 4.7 12.89 0-.086 1.367-.129 2.393.835 3.374.7341584.7366142 1.541309 1.3966751 2.409 1.97-.228 1.756-1.274 7.941-4.807 10.108-3.2541003.1732973-6.5151879.1706268-9.769-.008-3.492-2.143-4.551-8.223-4.792-10.044.8724091-.5818043 1.6838562-1.2501929 2.422-1.995zm-13.742 5.176c1.6204097.0053686 3.23691558-.1591979 4.823-.491.571.549 1.945 2.279 2.215 6.35-3.71451281-.5511508-7.32411851-1.6617469-10.706-3.294.56153409-1.5413366 2.02756199-2.566517 3.668-2.565z"/><path id="Shape" d="m10.349 9.275c-.55228475 0-1-.44771525-1-1s.44771525-1 1-1c.5522847 0 1 .44771525 1 1s-.4477153 1-1 1z"/></g></g></svg>