<svg height="512" viewBox="0 0 54 60" width="512" xmlns="http://www.w3.org/2000/svg"><g id="014---Female-User" fill="none"><g id="Icons" transform="translate(1)"><path id="Shape" d="m15.36 47.16c-8.19-1.42-11.48-4.16-11.48-4.16 3 0 5-5 2-7s-4-4-3-8 5-4 3-10 3-7 4-9-1-8 7-8 9 4 9 4 1-4 9-4 6 6 7 8 6 3 4 9 2 6 3 10 0 6-3 8-1 7 2 7c0 0-3.27 2.72-11.42 4.15z" fill="#e8edfc"/><path id="Shape" d="m47.88 43s-3.27 2.72-11.42 4.15h-3c8.15-1.43 11.42-4.15 11.42-4.15-3 0-5-5-2-7s4-4 3-8-5-4-3-10-3-7-4-9c-.94-1.88.77-7.3-5.68-7.94 9.985-.769 7.6 5.78 8.68 7.94 1 2 6 3 4 9s2 6 3 10 0 6-3 8-1 7 2 7z" fill="#cad9fc"/><path id="Shape" d="m51.88 54.02c-2.3992368 1.4034143-5.0095772 2.4097292-7.73 2.98-13.912 3.5-35.7 2.3-44.14-2.98h-.01s.88-4.02 4.88-4.02c7.22 0 11.32-3.14 13.03-4.88.3326405-.3336083.5287751-.7793689.55-1.25.0482821-1.6016154-.1541629-3.2009313-.6-4.74 2.47 3.12 6.17 6.88 9.67 5.48 2.387-.911 4.784-3.476 6.37-5.48-.4381916 1.5167097-.6405562 3.091781-.6 4.67.0174648.4872031.2215375.9490517.57 1.29 1.7 1.73 5.85 4.91 13.13 4.91 4 0 4.88 4.02 4.88 4.02z" fill="#cad9fc"/><g fill="#e8edfc"><path id="Shape" d="m48.88 54.02c-2.3992368 1.4034143-5.0095772 2.4097292-7.73 2.98-10.989728 2.5876863-22.430272 2.5876863-33.42 0-5.812-1.453-7.56-2.98-7.73-2.98 0 0 .88-4.02 4.88-4.02 7.22 0 11.32-3.14 13.03-4.88.3326405-.3336083.5287751-.7793689.55-1.25.0482821-1.6016154-.1541629-3.2009313-.6-4.74 2.47 3.12 6.17 6.88 9.67 5.48 1.0093761-.4171484 1.9447533-.9945835 2.77-1.71-.1612649.7789286.049453 1.5885292.57 2.19 1.7 1.73 5.85 4.91 13.13 4.91 4 0 4.88 4.02 4.88 4.02z"/><path id="Shape" d="m41.79 49.39c-.038.189-2.919 1.63-2.99 8.65-2.5509589.4278435-5.1258218.6983544-7.71.81 4.832-2.719 5.444-11.342 5.58-11.56 1.5824514.9711348 3.311387 1.6802686 5.12 2.1z"/><path id="Shape" d="m20.67 58.85c-2.5820515-.139351-5.1553635-.4096989-7.71-.81-.07-6.9-2.94-8.52-2.99-8.62 1.8159944-.4162619 3.5520594-1.1255491 5.14-2.1l.03.05s.75 8.79 5.53 11.48z"/><path id="Shape" d="m37.55 28.72c.65 3.18-.29 6.03-3.16 9.78-1.39 1.82-4.01 5-6.86 6.11-3.74 1.5-7.706-2.9-10.16-6.11-2.87-3.75-3.81-6.6-3.16-9.78.72-3.47-.07-3.23-.32-7.18 5.4274398-1.4404596 9.8657005-5.3419833 11.99-10.54.6185703 1.6058701 1.4969511 3.0991174 2.6 4.42 2.410477 2.9745462 5.6954837 5.1155729 9.39 6.12-.25 3.95-1.04 3.71-.32 7.18z"/></g></g><path id="Shape" d="m11.474 56.805c5.3110428.9022081 10.6963294 1.2933295 16.082 1.168-4.3851227-.0339841-8.7602156-.4246054-13.082-1.168-3.652-.645-8.322-1.825-11.45-3.777-.00784217-.0031187-.01585506-.0057896-.024-.008 0 0 .88-4.02 4.88-4.02 6.6 0 10.58-2.84 10.48-2.84-8.19-1.42-11.48-4.16-11.48-4.16 3 0 5-5 2-7s-4-4-3-8 5-4 3-10 3-7 4-9c.938-1.877-.764-7.276 5.633-7.934-.513-.039-1.048-.066-1.633-.066-8 0-6 6-7 8s-6 3-4 9-2 6-3 10 0 6 3 8 1 7-2 7c0 0 3.29 2.74 11.48 4.16.1 0-3.876 2.84-10.48 2.84-4 0-4.88 4.02-4.88 4.02.00814494.0022104.01615783.0048813.024.008 3.128 1.952 7.798 3.132 11.45 3.777z" fill="#fff" transform="translate(1 1)"/><path id="Shape" d="m8.3 10.138 1.273 1.542c-1.967 1.58-2.685 3.071-1.74 6l-1.9.632c-1.157-3.612-.345-6.02 2.367-8.174z" fill="#fff"/><g fill="#428dff"><path id="Shape" d="m.479 54.868c7.457 4.666 22.651 5.484 31.581 4.989h.021c.023 0 .047-.007.07-.009 6.342-.358 15.934-1.652 21.259-4.983.3584679-.2239568.5374151-.6491065.447-1.062-.5890489-2.7735955-3.0217537-4.7685214-5.857-4.803-2.6039805.0323354-5.1880863-.4569446-7.6-1.439 6.315-1.514 8.992-3.688 9.118-3.792.3237608-.2691329.4442786-.7122215.3014428-1.1082663-.1428358-.3960447-.5184282-.6602083-.9394428-.6607337-2.051 0-3.59-3.739-1.445-5.168 3.5-2.337 4.463-4.882 3.415-9.075-1.116-4.461-4.843-3.977-3.021-9.441 1.651-4.956-1-7.087-2.755-8.5-1.444-1.156-1.417-1.131-1.581-2.916-.239-2.584-.637-6.9-7.613-6.9-5.3 0-7.824 1.7-9 3.068-1.18-1.368-3.703-3.068-9-3.068-6.98 0-7.375 4.316-7.613 6.9-.167 1.84-.067 1.7-1.967 3.238-.21486096.1672723-.34979857.4169244-.37203405.6883113s.07026596.5396737.25503405.7396887c.36366912.3926988.96720701.4421976 1.39.114.8681024-.5979194 1.614678-1.3553544 2.2-2.232 1.219-2.436-.992-7.448 6.107-7.448 7 0 8 3.128 8.03 3.243.1190695.43343816.5112289.73528995.9607049.73947112.4494761.00418117.8471829-.29032303.9742951-.72147112.039-.133 1.038-3.261 8.035-3.261 5.152 0 5.391 2.582 5.621 5.079.214 2.319.4 2.759 2.32 4.3 1.709 1.372 3.322 2.669 2.11 6.305-2.171 6.516 2.094 7.016 2.979 10.559.843 3.375.215 5.058-2.585 6.925-2.962 1.975-2.229 6.279.275 8.066-2.8233184 1.3880043-5.8361611 2.3513996-8.941 2.859-.7463364-.4956127-1.4408432-1.0651552-2.073-1.7-.17102-.164204-.27446-.3864217-.29-.623-.0336587-1.4137229.1384763-2.8248257.511-4.189 2.693-3.421 4.593-6.833 3.722-11.064-.6-2.883-.08-2.813.238-5.735.3647009.1032014.7372999.1761157 1.114.218.5175918-.0000872.9495797-.3951199.9958311-.9106412.0462514-.5155212-.3085207-.9811403-.8178311-1.0733588-10.251-1.864-13.114-9.99-13.23-10.332-.1348836-.4103745-.5180268-.6877501-.95-.6877501s-.8151164.2773756-.95.6877501c-.117.344-2.98 8.47-13.231 10.334-.3515493.0639505-.6422771.3105926-.762669.6470185-.1203919.336426-.0521575.7115247.179.984.2311575.2724754.5901197.400932.941669.3369815.321-.059.625-.132.934-.2.318 2.919.836 2.85.237 5.738-.864 4.229 1.028 7.636 3.718 11.057.3818143 1.385549.5540564 2.8204506.511 4.257-.0130408.2217119-.1069769.4309332-.264.588-.6201318.6224264-1.299329 1.1830655-2.028 1.674-3.1278906-.503481-6.1632501-1.4704415-9.006-2.869 2.516-1.793 3.235-6.094.277-8.067-2.8-1.867-3.429-3.55-2.585-6.925.878-3.517 5.144-4.064 2.979-10.559-.11289592-.3394023-.39828504-.5927937-.74866403-.6647242-.35037899-.0719304-.71251695.0485282-.95000001.3160001s-.3142319.6413218-.20133596.9807241c1.828 5.484-1.9 4.96-3.021 9.441-1.049 4.193-.091 6.738 3.415 9.075 2.124 1.419.631 5.172-1.443 5.172-.42138111-.0003167-.797746.2635474-.94110246.6597936s-.02293983.8398391.30110246 1.1092064c.126.1 2.827 2.3 9.19 3.81-2.3962267.9741004-4.96360185 1.457311-7.55 1.421-2.83558565.0340501-5.26688856 2.0333893-5.848 4.809-.08903704.4119247.08973476.8354579.447 1.059zm14.454 2.309c-.173-3.8-1.19-6.018-2.085-7.246.8533157-.2822703 1.6848634-.6265204 2.488-1.03.343 2.09 1.244 5.989 3.438 8.721-1.312-.122-2.598-.267-3.841-.445zm20.045.457c2.22-2.759 3.119-6.709 3.455-8.787.8099419.407283 1.6480997.755847 2.508 1.043-.9 1.222-1.943 3.454-2.115 7.306-1.245.176-2.535.319-3.848.438zm16.7-4.068c-3.4244879 1.6460848-7.0786305 2.7637709-10.838 3.315.271-4.166 1.7-5.886 2.246-6.4 1.6145727.3491934 3.2621031.5232 4.914.519 1.6427921-.0020784 3.1115931 1.0232054 3.676 2.566zm-35.489-24.643c.709-3.412.059-3.572-.236-6.662 4.6454301-1.4536686 8.5563596-4.6337371 10.927-8.885 2.3706404 4.2512629 6.2815699 7.4313314 10.927 8.885-.3 3.107-.945 3.248-.237 6.659.583 2.851-.278 5.45-2.974 8.973-2.368 3.1-4.531 5.046-6.438 5.788-.8238317.3264898-1.7411683.3264898-2.565 0-1.9-.74-4.061-2.686-6.429-5.786-2.695-3.524-3.557-6.124-2.975-8.972zm3.433 16.9c.941-.957.9-2.039.812-3.405 4.626 4.612 8.18 4.7 12.89 0-.086 1.367-.129 2.393.835 3.374.7341584.7366142 1.541309 1.3966751 2.409 1.97-.228 1.756-1.274 7.941-4.807 10.108-3.2541003.1732973-6.5151879.1706268-9.769-.008-3.492-2.142-4.551-8.222-4.792-10.043.8724091-.5818043 1.6838562-1.2501929 2.422-1.995zm-13.742 5.177c1.6204097.0053686 3.23691558-.1591979 4.823-.491.571.549 1.945 2.279 2.215 6.35-3.71451281-.5511508-7.32411851-1.6617469-10.706-3.294.56153409-1.5413366 2.02756199-2.566517 3.668-2.565z"/><path id="Shape" d="m6.608 15.044c-.55228475 0-1-.4477153-1-1s.44771525-1 1-1 1 .4477153 1 1-.44771525 1-1 1z"/></g></g></svg>