<svg height="512" viewBox="0 0 54 60" width="512" xmlns="http://www.w3.org/2000/svg"><g id="019---Female-User" fill="none"><g id="Icons" transform="translate(1)"><path id="Shape" d="m13.9 21.7c.26 3.78 1.02 3.6.31 7.02-.1566199.7493288-.2204328 1.5150835-.19 2.28h-.01c-2.0135712-.7802241-3.4632721-2.5685689-3.81-4.7-.544-2.15-.632-5.543 1.56-5.29.7443965-.0397403 1.4843266.137426 2.13.51 0 .06.01.12.01.18z" fill="#e8edfc"/><path id="Shape" d="m41.55 26.3c-.3349765 2.1335109-1.7839464 3.9256579-3.8 4.7h-.01c.0304328-.7649165-.0333801-1.5306712-.19-2.28-.71-3.42.05-3.24.31-7.02 0-.07.01-.13.01-.2h.05c.8867817-.4676076 1.9095471-.6091669 2.89-.4 1.85.85.74 5.2.74 5.2z" fill="#e8edfc"/><path id="Shape" d="m51.88 54.02c-2.3992368 1.4034143-5.0095772 2.4097292-7.73 2.98-13.912 3.5-35.7 2.3-44.14-2.98h-.01s.88-4.02 4.88-4.02c7.22 0 11.32-3.14 13.03-4.88.3326405-.3336083.5287751-.7793689.55-1.25.0485618-1.6016288-.1538888-3.2009881-.6-4.74 2.47 3.12 6.17 6.88 9.67 5.48 2.387-.911 4.785-3.477 6.37-5.48-.4386128 1.5166223-.6409858 3.0917591-.6 4.67.0174648.4872031.2215375.9490517.57 1.29 1.7 1.73 5.85 4.91 13.13 4.91 4 0 4.88 4.02 4.88 4.02z" fill="#cad9fc"/><g fill="#e8edfc"><path id="Shape" d="m48.88 54.02c-2.3992368 1.4034143-5.0095772 2.4097292-7.73 2.98-10.989728 2.5876863-22.430272 2.5876863-33.42 0-5.812-1.453-7.56-2.98-7.73-2.98 0 0 .88-4.02 4.88-4.02 7.22 0 11.32-3.14 13.03-4.88.3326405-.3336083.5287751-.7793689.55-1.25.0485618-1.6016288-.1538888-3.2009881-.6-4.74 2.47 3.12 6.17 6.88 9.67 5.48 1.0093761-.4171484 1.9447533-.9945835 2.77-1.71-.1612649.7789286.049453 1.5885292.57 2.19 1.7 1.73 5.85 4.91 13.13 4.91 4 0 4.88 4.02 4.88 4.02z"/><path id="Shape" d="m41.79 49.39c-.038.189-2.919 1.63-2.99 8.65-2.5509589.4278435-5.1258218.6983544-7.71.81 4.832-2.719 5.444-11.342 5.58-11.56 1.5824514.9711348 3.311387 1.6802686 5.12 2.1z"/><path id="Shape" d="m20.67 58.85c-2.5820515-.139351-5.1553635-.4096989-7.71-.81-.07-6.9-2.94-8.52-2.99-8.62 1.8159944-.4162619 3.5520594-1.1255491 5.14-2.1l.03.05s.75 8.79 5.53 11.48z"/></g><path id="Shape" d="m37.55 28.72c.65 3.18-.29 6.03-3.16 9.78-1.39 1.82-4.01 5-6.86 6.11-3.74 1.5-7.706-2.9-10.16-6.11-2.87-3.75-3.81-6.6-3.16-9.78.71-3.42-.05-3.24-.31-7.02 9.35-1.94 11.98-10.7 11.98-10.7 1.5296856 4.3674737 4.798182 7.9074399 9.03 9.78.9489869.4075474 1.9375794.7158542 2.95.92-.26 3.78-1.02 3.6-.31 7.02z" fill="#cad9fc"/><path id="Shape" d="m34.55 28.72c.65 3.18-.29 6.03-3.16 9.78-1.39 1.82-4.01 5-6.86 6.11-.16.064-.148.061-.3 0-2.85-1.11-5.47-4.29-6.86-6.11-2.87-3.75-3.81-6.6-3.16-9.78.71-3.42-.05-3.24-.31-7.02 9.35-1.94 11.98-10.7 11.98-10.7 1.5296856 4.3674737 4.798182 7.9074399 9.03 9.78-.19 4.75-1.12 4.26-.36 7.94z" fill="#e8edfc"/><path id="Shape" d="m25.94 6c-1.7349579-3.516441-5.5469395-5.50489845-9.4235642-4.9156471-3.8766246.58925135-6.92559293 3.62058097-7.53732599 7.49372166-.61173306 3.87314064 1.35457439 7.69659484 4.86089019 9.45192544z" fill="#e8edfc"/><path id="Shape" d="m37.88 16.27c-.39-9.81-11.15-10.27-11.15-10.27-.7803896-.03963493-1.5626671-.01957653-2.34.06-5.7.645-10.315 4.183-10.51 10.21-.0931561 1.8089915-.0864793 3.6217438.02 5.43 9.35-1.94 11.98-10.7 11.98-10.7 1.5296856 4.3674737 4.798182 7.9074399 9.03 9.78.9489869.4075474 1.9375794.7158542 2.95.92.1064793-1.8082562.1131561-3.6210085.02-5.43z" fill="#e8edfc"/><path id="Shape" d="m37.86 21.7c-1.0124206-.2041458-2.0010131-.5124526-2.95-.92.04-1.15.05-2.61-.03-4.51-.33-8.33-8.15-9.92-10.49-10.21.7770018-.08462894 1.5596821-.10469767 2.34-.06 0 0 10.76.46 11.15 10.27.0931561 1.8089915.0864793 3.6217438-.02 5.43z" fill="#cad9fc"/></g><g id="Icons_copy_2" fill="#fff" transform="translate(1 1)"><path id="Shape" d="m17.88 0c-4.1667948-.00341388-7.7900988 2.85625386-8.75496747 6.90979782-.96486872 4.05354398.98148697 8.23896278 4.70296747 10.11320218-.023 1.275 0 2.29.042 3.139.2735714-.1421949.584742-.1953386.89-.152.7441139-.0401237 1.4838315.137075 2.129.51-.059-.913-.087-2.043-.061-3.5-3.468148-1.7471295-5.4213797-5.5246409-4.8421171-9.36455844.5792626-3.83991755 3.5599129-6.87313864 7.3891171-7.51944156-.493661-.08700294-.9937432-.13249536-1.495-.136z"/><path id="Shape" d="m27.55 57.973c-4.3834225-.0348674-8.7567827-.4254834-13.077-1.168-8.573-1.514-11.291-3.785-11.473-3.785 0 0 .88-4.02 4.88-4.02 5.784 0 10.313-2.115 13.03-4.88.3326405-.3336083.5287751-.7793689.55-1.25.0485618-1.6016288-.1538888-3.2009881-.6-4.74-2.149-2.713-4.009-5.614-3.821-9.014-.017.3-.031.591-.019.884h-.01c-2.0135712-.7802241-3.4632721-2.5685689-3.81-4.7-.417-1.651-.562-4.027.383-4.931-.5683873-.2693131-1.1949411-.3926992-1.823-.359-2.192-.253-2.1 3.14-1.56 5.29.3467279 2.1314311 1.7964288 3.9197759 3.81 4.7h.01c-.012-.293 0-.589.019-.884-.188 3.4 1.672 6.3 3.821 9.014.4461112 1.5390119.6485618 3.1383712.6 4.74-.0212249.4706311-.2173595.9163917-.55 1.25-2.717 2.765-7.246 4.88-13.03 4.88-4 0-4.88 4.02-4.88 4.02.182 0 2.9 2.271 11.473 3.785 5.3095419.9007093 10.6930256 1.2918214 16.077 1.168zm-8.897-18.873c.282.334.277.328-.006-.006z"/></g><g id="Layer_10" transform="translate(0 -1)"><path id="Shape" d="m12.581 3.237 1.261 1.553c-1.8642589 1.52451182-2.9504593 3.8017923-2.962 6.21h-2c.01306529-3.01037952 1.3704222-5.85749152 3.701-7.763z" fill="#fff"/><g fill="#428dff"><path id="Shape" d="m.479 55.868c5.305 3.318 14.805 4.61 21.137 4.975 3.485143.2056218 6.9792074.2112977 10.465.017.023 0 .047-.007.07-.009 6.333-.357 15.935-1.651 21.259-4.983.358088-.2242362.5366103-.6493274.446-1.062-.5867311-2.7750433-3.0198136-4.7718661-5.856-4.806-7.126 0-11.055-3.221-12.413-4.606-.1713084-.1641031-.2750987-.3863071-.291-.623-.0346909-1.4145613.1381461-2.8265691.513-4.191 1.86-2.357 3.518-4.951 3.854-7.909 2.0599778-.9940359 3.5055583-2.9304344 3.873-5.188.536-2.178.709-5.611-1.4-6.326-.7213606-.1887844-1.4769684-.2055681-2.206-.049.023-1.053.015-2.319-.047-3.874-.4-10.023-10.733-11.129-12.02-11.226-.1167102-.01014023-.233949-.01281235-.351-.008-1.4545561-2.53666245-3.9506187-4.30572411-6.8259074-4.83779984-2.8752888-.53207573-5.8391172.22662635-8.1050926 2.07479984-.2220737.16744195-.3613964.4223148-.3824495.69964186-.0210532.27732705.0781976.55031108.2724495.74935814.3680645.37067833.9530431.41334635 1.371.1 1.6650294-1.35481982 3.8061713-1.98072004 5.9387718-1.73602625 2.1326004.24469378 4.0763331 1.339291 5.3912282 3.03602625-2.654.359-10.925 2.194-11.29 11.132-1.8990822-1.5037414-3.0045601-3.7946601-3-6.217 0-.5522847-.4477153-1-1-1-.55228475 0-1 .4477153-1 1-.00672648 3.5411734 1.8784848 6.8162703 4.944 8.589-.004.5513333-.0006667 1.0573333.01 1.518-1.743-.3-3.03-.043-3.646 1.624-.38656814 1.5606871-.3762546 3.1933213.03 4.749.374668 2.2565633 1.8213075 4.1908845 3.88 5.188.337 2.969 2.008 5.574 3.852 7.909.3810236 1.3853478.5529213 2.8198506.51 4.256-.0130408.2217119-.1069769.4309332-.264.588-1.683 1.71-5.517 4.578-12.318 4.578-2.83558565.0340501-5.26688856 2.0333893-5.848 4.809-.08903704.4119247.08973476.8354579.447 1.059zm14.454 2.309c-.173-3.8-1.189-6.018-2.085-7.246.8533768-.282106 1.6849363-.626361 2.488-1.03.342 2.09 1.244 5.989 3.438 8.721-1.312-.122-2.598-.267-3.841-.445zm20.045.457c2.22-2.759 3.119-6.709 3.454-8.787.8105613.4066818 1.6490079.7552269 2.509 1.043-.9 1.222-1.942 3.454-2.115 7.306-1.245.176-2.535.319-3.848.438zm16.7-4.068c-3.4243474 1.6464445-7.0785458 2.7641478-10.838 3.315.272-4.166 1.7-5.886 2.246-6.4 1.6145727.3491934 3.2621031.5232 4.914.519 1.6427921-.0020784 3.1115931 1.0232054 3.676 2.566zm-10.685-31.555c.1467169-.0220858.2963854-.0142622.44.023.581.352.562 2.384.147 4.023-.0130422.053924-.022067.108741-.027.164-.2063446 1.245725-.890963 2.3616387-1.908 3.11-.035-.272-.062-.542-.119-.817-.634-3.065-.005-2.825.292-6.3.3763811-.1373675.774347-.2061224 1.175-.203zm-14.964-15.011h1.677c.622.032 9.832.662 10.175 9.313.067 1.709.071 3.038.037 4.109-4.7178468-1.4427528-8.4634017-5.0512072-10.081-9.712-.1277982-.4216062-.5164501-.7099121-.957-.7099121s-.8292018.2883059-.957.7099121c-1.6176741 4.6613171-5.3636319 8.2701733-10.082 9.713-.041-1.328-.016-2.752.038-4.11.347-8.763 9.793-9.295 10.15-9.313zm-13.829 19.216c-.011-.118-.607-2.523-.138-3.792.0436543-.1561278.1370444-.2937552.266-.392.1028564-.029778.2102673-.0406207.317-.032.4400497-.0055188.8783842.055848 1.3.182.291 3.455.928 3.263.293 6.329-.056.274-.083.545-.118.816-1.017362-.7504869-1.7052897-1.8651447-1.92-3.111zm3.992 2.7c.693-3.343.079-3.619-.219-6.453 4.7484197-1.2621181 8.7228625-4.5088666 10.907-8.91 2.1844501 4.4008841 6.1587622 7.6475258 10.907 8.91-.3 2.842-.912 3.1-.22 6.453.59 2.851-.271 5.451-2.971 8.975-2.378 3.1-4.54 5.051-6.426 5.79-.8297951.3204972-1.7492049.3204972-2.579 0-1.885-.738-4.047-2.686-6.427-5.79-2.7-3.521-3.564-6.121-2.972-8.972zm3.428 16.909c.946-.958.9-2.051.814-3.411 4.667 4.656 8.216 4.665 12.891 0-.086 1.371-.128 2.4.834 3.377.7341584.7366142 1.541309 1.3966751 2.409 1.97-.228 1.755-1.274 7.941-4.806 10.108-3.2544329.1733334-6.5158553.1706628-9.77-.008-3.492-2.141-4.551-8.222-4.792-10.042.8714842-.5818437 1.6822319-1.2498729 2.42-1.994zm-13.74 5.175c1.62079857.0055078 3.23768522-.1593985 4.824-.492.571.549 1.945 2.28 2.214 6.351-3.71261294-.5510629-7.32025358-1.6616767-10.7-3.294.55906617-1.5405861 2.02311033-2.5660567 3.662-2.565z"/><path id="Shape" d="m10.767 8.114c-.5522847 0-1-.44771525-1-1s.4477153-1 1-1 1 .44771525 1 1-.4477153 1-1 1z"/></g></g></g></svg>