<svg height="512" viewBox="0 0 54 60" width="512" xmlns="http://www.w3.org/2000/svg"><g id="012---Female-User" fill="none"><g id="Icons" transform="translate(1)"><path id="Shape" d="m50.92 51.99c1.14-2.29.03-4.61-2.04-5.99-1.86-1.24-4-5-1-8 2-2 3-8-1-10-5.22-2.61-2-6-2-14s-5-13-12-13-7 4-7 4 0-4-7-4-12 5-12 13 3.22 11.39-2 14c-4 2-3 8-1 10 3 3 .86 6.76-1 8-2.09 1.4-3.21 3.77-1.99 6.09z" fill="#e8edfc"/><path id="Shape" d="m50.92 51.99h-3c1.14-2.29.03-4.61-2.04-5.99-1.86-1.24-4-5-1-8 2-2 3-8-1-10-5.22-2.61-2-6-2-14 0-7.44-4.33-12.29-10.57-12.92 7.72-.804 13.57 4.259 13.57 12.92 0 8-3.22 11.39 2 14 4 2 3 8 1 10-3 3-.86 6.76 1 8 2.07 1.38 3.18 3.7 2.04 5.99z" fill="#cad9fc"/><path id="Shape" d="m51.88 54.02c-2.3992368 1.4034143-5.0095772 2.4097292-7.73 2.98-13.912 3.5-35.7 2.3-44.14-2.98h-.01s.88-4.02 4.88-4.02c7.22 0 11.32-3.14 13.03-4.88.3326405-.3336083.5287751-.7793689.55-1.25.0482821-1.6016154-.1541629-3.2009313-.6-4.74 2.52 3.2 6.14 6.9 9.67 5.48 2.387-.911 4.784-3.476 6.37-5.48-.4381916 1.5167097-.6405562 3.091781-.6 4.67.0174648.4872031.2215375.9490517.57 1.29 1.7 1.73 5.85 4.91 13.13 4.91 4 0 4.88 4.02 4.88 4.02z" fill="#cad9fc"/><g fill="#e8edfc"><path id="Shape" d="m48.88 54.02c-2.3992368 1.4034143-5.0095772 2.4097292-7.73 2.98-10.989728 2.5876863-22.430272 2.5876863-33.42 0-5.812-1.453-7.56-2.98-7.73-2.98 0 0 .88-4.02 4.88-4.02 7.22 0 11.32-3.14 13.03-4.88.3326405-.3336083.5287751-.7793689.55-1.25.0482821-1.6016154-.1541629-3.2009313-.6-4.74 2.52 3.2 6.14 6.9 9.67 5.48 1.0093761-.4171484 1.9447533-.9945835 2.77-1.71-.1612649.7789286.049453 1.5885292.57 2.19 1.7 1.73 5.85 4.91 13.13 4.91 4 0 4.88 4.02 4.88 4.02z"/><path id="Shape" d="m41.79 49.39c-.038.189-2.919 1.63-2.99 8.65-2.5509589.4278435-5.1258218.6983544-7.71.81 4.832-2.719 5.444-11.342 5.58-11.56 1.5824514.9711348 3.311387 1.6802686 5.12 2.1z"/><path id="Shape" d="m20.67 58.85c-2.5820515-.139351-5.1553635-.4096989-7.71-.81-.07-6.9-2.94-8.52-2.99-8.62 1.8159944-.4162619 3.5520594-1.1255491 5.14-2.1l.03.05s.75 8.79 5.53 11.48z"/><path id="Shape" d="m37.55 28.72c.65 3.18-.29 6.03-3.16 9.78-1.39 1.82-4.01 5-6.86 6.11-3.767 1.507-7.633-2.8-10.16-6.11-2.87-3.75-3.81-6.6-3.16-9.78.74-3.54-.1-3.22-.33-7.43 0 0 9-4.29 12-11.29 1.011997 1.5450019 2.1420372 3.0093735 3.38 4.38 2.3725461 2.7917435 5.3106162 5.0481268 8.62 6.62 0 4.078-1.156 3.769-.33 7.72z"/></g></g><path id="Shape" d="m11.474 56.805c5.3110428.9022081 10.6963294 1.2933295 16.082 1.168-4.3851227-.0339841-8.7602156-.4246054-13.082-1.168-3.652-.645-8.322-1.825-11.45-3.777-.00784217-.0031187-.01585506-.0057896-.024-.008.18189647-.691047.48272185-1.3451477.889-1.933-1.218-2.319-.098-4.687 1.991-6.087 1.86-1.24 4-5 1-8-2-2-3-8 1-10 5.22-2.61 2-6 2-14 0-7.432 4.318-12.268 10.543-12.918-.5125988-.05362404-1.027605-.08099314-1.543-.082-7 0-12 5-12 13s3.22 11.39-2 14c-4 2-3 8-1 10 3 3 .86 6.76-1 8-2.089 1.4-3.209 3.768-1.991 6.087-.40627815.5878523-.70710353 1.241953-.889 1.933.00814494.0022104.01615783.0048813.024.008 3.128 1.952 7.798 3.132 11.45 3.777z" fill="#fff" transform="translate(1 1)"/><g id="Layer_10" transform="translate(0 -1)"><path id="Shape" d="m9.115 6.825 1.705 1.044c-1.24099884 2.1684232-1.87003612 4.6330742-1.82 7.131h-2c-.0518402-2.8666661.67941623-5.6931537 2.115-8.175z" fill="#fff"/><g fill="#428dff"><path id="Shape" d="m8.484 12.029c-.55228475 0-1-.4477153-1-1s.44771525-1 1-1 1 .4477153 1 1-.44771525 1-1 1z"/><path id="Shape" d="m50.555 46.168c-1.1170083-.8131135-1.8512423-2.0491284-2.031-3.419-.1033942-1.1432497.3343879-2.268975 1.183-3.042 2.639-2.638 3.248-9.347-1.26-11.6-4.487-2.245-1.447-4.863-1.447-13.107 0-8.374-5.224-14-13-14-4 0-6 1.227-7 2.465-1-1.238-3-2.465-7-2.465-4.4052965-.12906178-8.5485134 2.08813972-10.885 5.825-.14567934.23291743-.18813469.51585712-.11723072.78127306.07090397.26541595.24880422.48948922.49123072.61872694.46842528.24829095 1.049074.09298595 1.331-.356 1.9717998-3.14496752 5.4703498-5.00057101 9.18-4.869 5.82 0 6 2.895 6 3-.0041421.55228474.4402153 1.00335785.9925 1.00749999.5522847.00414213 1.0033579-.44021525 1.0075-.99249999.007-.156.216-3.015 6-3.015 6.682 0 11 4.71 11 12 0 7.744-3.386 11.925 2.553 14.9 1.1815438.6021144 1.9782036 1.761166 2.117 3.08.305278 1.8872496-.1941559 3.8160727-1.377 5.318-1.2748065 1.1952142-1.9243282 2.9133635-1.759 4.653.2351569 1.9672336 1.2929385 3.7426787 2.911 4.886 1.1480467.688708 1.9043634 1.8782116 2.041 3.21-.9819133-.698467-2.1611448-1.065269-3.366-1.047-7.127 0-11.055-3.221-12.413-4.606-.1717105-.1638145-.275578-.3861839-.291-.623-.0346074-1.4142281.138229-2.8258939.513-4.19 2.692-3.424 4.585-6.831 3.72-11.065-.609-2.916-.07-2.819.244-5.833.3511115.1603218.7242473.2671728 1.107.317.4963547.0001151.9176738-.3638645.9896594-.8549715.0719855-.491107-.2271516-.9606898-.7026594-1.1030285-9.418-2.825-13.335-11.363-13.374-11.449-.160665-.360751-.5185892-.59316127-.9135-.59316127s-.752835.23241027-.9135.59316127c-2.7540926 5.4457531-7.5678933 9.5669827-13.373 11.449-.5290888.1585057-.8295057.7159112-.671 1.245s.7159112.8295057 1.245.671c.281-.084.548-.182.82-.275.314 3.013.854 2.916.243 5.837-.864 4.229 1.029 7.636 3.718 11.057.3818143 1.385549.5540564 2.8204506.511 4.257-.0123917.2218705-.106427.4313129-.264.588-1.68 1.71-5.515 4.578-12.315 4.578-1.25689964-.0215352-2.48494417.3776057-3.489 1.134.10446743-1.3668386.86679778-2.5976068 2.044-3.3 1.61806152-1.1433213 2.67584308-2.9187664 2.911-4.886.16532824-1.7396365-.48419348-3.4577858-1.759-4.653-1.18339488-1.5024302-1.68285992-3.4320991-1.377-5.32.14040942-1.316991.93684125-2.4738299 2.117-3.075 5.938-2.975 2.553-7.15 2.553-14.9 0-.5522847-.44771525-1-1-1s-1 .4477153-1 1c0 8.228 3.035 10.865-1.447 13.105-1.75133565.8961115-2.94843959 2.5978696-3.2 4.549-.40672076 2.5206026.2999392 5.0936912 1.937 7.053.84861212.773025 1.2863942 1.8987503 1.183 3.042-.17987455 1.3705982-.91491541 2.6071155-2.033 3.42-2.542 1.7-3.5 4.375-2.554 6.811-.3379596.5682882-.58653047 1.1851622-.737 1.829-.08825742.4128081.09221398.8365758.451 1.059 5.3 3.319 14.813 4.611 21.136 4.975.018 0 .035.007.053.007h.016c8.9.507 24.229-.291 31.725-4.98.3584679-.2239568.5374151-.6491065.447-1.062-.1650343-.6905611-.4416707-1.3495571-.819-1.951.87-2.406-.111-5.028-2.603-6.689zm-9.494 4.723c-.9 1.221-1.942 3.453-2.115 7.305-1.245.176-2.534.319-3.848.438 2.22-2.759 3.119-6.709 3.455-8.787.8099113.4076305 1.6480701.7565292 2.508 1.044zm-24.752-20.966c.747-3.578.017-3.537-.262-6.992 4.5566396-2.0984531 8.3740255-5.5230521 10.953-9.826 2.5789745 4.3029479 6.3963604 7.7275469 10.953 9.826-.273 3.383-1 3.454-.263 6.987.583 2.851-.279 5.451-2.975 8.973-2.367 3.1-4.529 5.045-6.437 5.788-.8238317.3264898-1.7411683.3264898-2.565 0-1.9-.74-4.061-2.686-6.429-5.786-2.695-3.524-3.557-6.124-2.975-8.97zm-.853 19.975c.342 2.091 1.244 5.989 3.438 8.721-1.312-.121-2.6-.267-3.84-.445-.174-3.8-1.191-6.018-2.086-7.246.8534759-.2818393 1.6850547-.6261023 2.488-1.03zm-13.123 4.665c.55968931-1.5423117 2.02627839-2.5681641 3.667-2.565 1.6204097.0053686 3.23691558-.1591979 4.823-.491.571.549 1.945 2.279 2.215 6.35-3.71422515-.5510083-7.32352228-1.6616131-10.705-3.294zm19.779 4.3c-3.493-2.145-4.552-8.225-4.792-10.046.8726417-.5833802 1.6840973-1.2534509 2.422-2 .941-.957.9-2.039.812-3.405 4.676 4.662 8.234 4.642 12.89 0-.085 1.367-.129 2.393.835 3.374.7338973.7369023 1.5410785 1.3969882 2.409 1.97-.228 1.756-1.274 7.941-4.807 10.108-3.2539873.1751413-6.5150486.1748075-9.769-.001zm18.848-.984c.271-4.166 1.7-5.886 2.246-6.4 1.6145727.3491934 3.2621031.5232 4.914.519 1.6442569-.0037617 3.1150919 1.0218259 3.68 2.566-3.4250139 1.6465362-7.0798851 2.7642389-10.84 3.315z"/></g></g></g></svg>