<svg height="512" viewBox="0 0 54 60" width="512" xmlns="http://www.w3.org/2000/svg"><g id="016---Female-User" fill="none"><g id="Icons" transform="translate(1)"><path id="Shape" d="m51.88 54.02c-2.3992368 1.4034143-5.0095772 2.4097292-7.73 2.98-13.912 3.5-35.7 2.3-44.14-2.98h-.01s.88-4.02 4.88-4.02c6.98 0 11.04-2.93 12.85-4.71 1.2469972 1.1111901 2.6566329 2.0250926 4.18 2.71-1.1413263-2.4024144-2.0941959-4.8899057-2.85-7.44 1.3966829 1.7217727 3.1639121 3.1061592 5.17 4.05 3.1 1.234 6.356-1.583 8.53-4.12-.7342161 2.5837789-1.7049878 5.0943956-2.9 7.5 1.5218245-.6975084 2.9334345-1.6138757 4.19-2.72 1.8 1.76 5.92 4.73 12.95 4.73 4 0 4.88 4.02 4.88 4.02z" fill="#cad9fc"/><g fill="#e8edfc"><path id="Shape" d="m48.88 54.02c-2.3992368 1.4034143-5.0095772 2.4097292-7.73 2.98-10.989728 2.5876863-22.430272 2.5876863-33.42 0-5.812-1.453-7.56-2.98-7.73-2.98 0 0 .88-4.02 4.88-4.02 6.98 0 11.04-2.93 12.85-4.71 1.2469972 1.1111901 2.6566329 2.0250926 4.18 2.71-1.1413263-2.4024144-2.0941959-4.8899057-2.85-7.44 1.3966829 1.7217727 3.1639121 3.1061592 5.17 4.05 2.11.84 4.23-.17 6.07-1.69-.055 1.537.165 1.765.79 2.39-.3627837.9142572-.7733495 1.8088234-1.23 2.68.9258675-.40207 1.804522-.9051164 2.62-1.5 3.3532639 2.3974342 7.3996121 3.6303059 11.52 3.51 4 0 4.88 4.02 4.88 4.02z"/><path id="Shape" d="m41.79 49.39c-.038.189-2.919 1.63-2.99 8.65-2.5509589.4278435-5.1258218.6983544-7.71.81 4.832-2.719 5.444-11.342 5.58-11.56 1.5824514.9711348 3.311387 1.6802686 5.12 2.1z"/><path id="Shape" d="m20.67 58.85c-2.5820515-.139351-5.1553635-.4096989-7.71-.81-.07-6.9-2.94-8.52-2.99-8.62 1.8159944-.4162619 3.5520594-1.1255491 5.14-2.1l.03.05s.75 8.79 5.53 11.48z"/><path id="Shape" d="m42.74 10c-1.131-4.524-5.611-9.353-10.33-8.99-2.3 0-5.28.735-6.42 2.73-.208.347-.009.352-.22 0-1.14-1.995-4.114-2.73-6.42-2.73-4.724-.364-9.2 4.472-10.33 8.99-.99 4-1.98 8 0 19 2.72 15.05 12.89 19 12.89 19-1.1440015-2.4012677-2.0969526-4.8889716-2.85-7.44 1.3966829 1.7217727 3.1639121 3.1061592 5.17 4.05 3.105 1.242 6.247-1.543 8.47-4.05l.056-.074c-.7192096 2.5941368-1.6925903 5.1109924-2.906 7.514 0 0 10.17-3.95 12.89-19 1.98-11 .99-15 0-19z"/></g><path id="Shape" d="m35.79 21c0 8.306-2.506 18.684-3.09 19.56-2.22 2.51-5.36 5.29-8.47 4.05-2.0060879-.9438408-3.7733171-2.3282273-5.17-4.05-1.9608528-6.3385052-3.0014701-12.9257137-3.09-19.56 0-8.9 3.92-9.88 8.28-9.98.75-.03 2.51-.03 3.26 0 4.36.1 8.28 1.08 8.28 9.98z" fill="#cad9fc"/><path id="Shape" d="m42.74 29c-2.72 15.05-12.89 19-12.89 19 .062-.113.647-1.333 1.22-2.74 3.13-2.69 7.12-7.66 8.67-16.26 1.98-11 .99-15 0-19-.92-3.66-4.32-8.17-8.69-8.89.4502268-.06700838.9048143-.10043393 1.36-.1 4.719-.363 9.2 4.466 10.33 8.99.99 4 1.98 8 0 19z" fill="#cad9fc"/><path id="Shape" d="m32.79 21c-.095755 6.6296344-1.1327807 13.2120541-3.08 19.55l-.01.01c-1.3966829 1.7217727-3.1639121 3.1061592-5.17 4.05-.16.064-.147.061-.3 0-2.0060879-.9438408-3.7733171-2.3282273-5.17-4.05-.12-.36-.23-.73-.33-1.1-1.582909-5.4185113-2.499665-11.0097153-2.73-16.65-.514-9.763 2.891-11.8 8.49-11.8 4.37.11 8.3 1.08 8.3 9.99z" fill="#e8edfc"/></g><g id="Icons_copy_2" fill="#fff" transform="translate(1)"><path id="Shape" d="m20.7 45.258.018.046.016-.014.026.021z"/><path id="Shape" d="m11.474 57.805c5.3110428.9022081 10.6963294 1.2933295 16.082 1.168-4.3851227-.0339841-8.7602156-.4246054-13.082-1.168-3.652-.645-8.322-1.825-11.45-3.777-.00784217-.0031187-.01585506-.0057896-.024-.008 0 0 .88-4.02 4.88-4.02 4.724 0 9.5-1.432 12.832-4.694l-.02-.051c-3.132-2.685-7.117-7.655-8.672-16.255-1.98-11-.99-15 0-19 1-3.978 4.585-8.2 8.654-8.9-.4392397-.0553918-.8813049-.08544155-1.324-.09-4.724-.364-9.2 4.472-10.33 8.99-.99 4-1.98 8 0 19 1.565 8.66 5.595 13.639 8.736 16.311l-.026-.021c-3.33 3.275-8.118 4.71-12.85 4.71-4 0-4.88 4.02-4.88 4.02.00814494.0022104.01615783.0048813.024.008 3.128 1.952 7.798 3.132 11.45 3.777z"/></g><g id="Layer_10" transform="translate(0 -1)"><path id="Shape" d="m13.57 3.568 1.3 1.516c-1.863033 1.63083999-3.2082811 3.77107057-3.87 6.157l-1.941-.482c.75948589-2.79034096 2.3293198-5.29281845 4.511-7.191z" fill="#fff"/><g fill="#428dff"><path id="Shape" d="m.479 55.868c10.866 6.8 42.031 6.822 52.931 0 .358088-.2242362.5366103-.6493274.446-1.062-.5867311-2.7750433-3.0198136-4.7718661-5.856-4.806-4.1248723.1169135-8.1623962-1.2018296-11.423-3.731 3.1-2.933 6.673-7.938 8.143-16.092 2.02-11.21.986-15.383-.014-19.418-1.163-4.693-5.655-9.759-10.886-9.759-3.892 0-5.92 1.231-6.94 2.271-2.495-2.544-7.118-2.271-6.94-2.271-2.3602829.07539997-4.6173622.98531828-6.37 2.568-.2121956.17323287-.3418249.42766456-.3572303.70115914-.0154055.27349458.084831.5408742.2762303.73684086.3715744.38037097.9720402.41421225 1.384.078 1.3915793-1.26859178 3.1855638-2.00643739 5.067-2.084 5.039 0 5.961 2.24 5.991 2.313.1419881.39684609.5158943.66345302.9373482.66835883.4214539.00490582.8014647-.25292536.9526518-.64635883.037-.095.959-2.335 5.999-2.335 4.5 0 8.088 4.786 8.945 8.241.993 4.007 1.93 7.792-.014 18.582-1.737 9.639-6.685 14.565-9.739 16.758 3.0427274-7.8444177 4.6640429-16.1680509 4.788-24.581 0-11-6.052-11-10.915-11s-10.92 0-10.92 11c.1201986 8.412546 1.7398948 16.7362198 4.783 24.58-3.056-2.193-8-7.119-9.739-16.757-1.945-10.79-1.009-14.575-.009-18.582.0889341-.3477367-.0153176-.7164643-.2731644-.9661544s-.6297341-.34203919-.97443336-.2419768c-.34469931.1000625-.60933254.3771865-.69340224.7261312-1 4.035-2.034 8.208-.014 19.418 1.476 8.186 5.068 13.2 8.179 16.127-3.2385835 2.5097171-7.24855709 3.8162106-11.344 3.696-2.83558565.0340501-5.26688856 2.0333893-5.848 4.809-.08903704.4119247.08973476.8354579.447 1.059zm18.286 2.744c-1.2986667-.122-2.5766667-.274-3.834-.456-.178-3.8-1.2-6.012-2.092-7.236.8572235-.2806178 1.6927839-.6235318 2.5-1.026.337 2.085 1.235 5.983 3.426 8.718zm19.666-8.756c.8102571.4053834 1.6487788.7516204 2.509 1.036-.9 1.22-1.938 3.446-2.114 7.285-1.2666667.182-2.547.3313333-3.841.448 2.215-2.754 3.115-6.69 3.446-8.769zm13.245 4.71c-3.4221333 1.6480028-7.0759482 2.7635376-10.835 3.308.274-4.176 1.7-5.891 2.25-6.4 1.6129432.3495838 3.2586077.5259169 4.909.526 1.6427921-.0020784 3.1115931 1.0232054 3.676 2.566zm-24.796-41.566c4.98 0 8.915 0 8.915 9-.0842149 6.4551148-1.0852195 12.8655176-2.973 19.039-1.2598724 1.5500324-2.8539634 2.7950848-4.663 3.642-.8247746.3269797-1.7432254.3269797-2.568 0-1.8052873-.8470599-3.3958813-2.0910254-4.653-3.639-1.8886963-6.1742996-2.8897183-12.5858237-2.973-19.042 0-9 3.935-9 8.915-9zm-4.328 36.932c.3846434.149304.821496.0470392 1.0999017-.2574809s.3411983-.748767.1580983-1.1185191c-.5-1.014-1.011-2.194-1.509-3.5 3.335 2.532 5.928 2.446 9.162-.011-.5 1.308-1.009 2.491-1.513 3.508-.1831.3697521-.1203074.813999.1580983 1.1185191s.7152583.4067849 1.0999017.2574809c1.3818382-.6013575 2.674306-1.390096 3.841-2.344.4839447.4150705.9918167.8014004 1.521 1.157-.223 1.733-1.265 7.955-4.81 10.128-3.254571.1686944-6.5157811.1653564-9.77-.01-3.5-2.151-4.555-8.255-4.792-10.059.5430765-.3610471 1.0637033-.7547732 1.559-1.179 1.1538678.9392766 2.4306799 1.7164666 3.795 2.31zm-16.672 2.068c1.61706322.0019048 3.22987314-.1656773 4.812-.5.564.539 1.95 2.266 2.223 6.352-3.71340201-.542566-7.32186345-1.6503974-10.7-3.285.55877319-1.5424095 2.02449684-2.569016 3.665-2.567z"/><path id="Shape" d="m11.644 8.342c-.5522847 0-1-.44771525-1-1s.4477153-1 1-1 1 .44771525 1 1-.4477153 1-1 1z"/></g></g></g></svg>