<svg height="512" viewBox="0 0 54 60" width="512" xmlns="http://www.w3.org/2000/svg"><g id="020---Female-User" fill="none"><g id="Icons" transform="translate(1 1)"><path id="Shape" d="m46.6 48.99c-4.188 0 2.968 0-41.65.01 1.9-7.74.06-20.63.93-32 .55-7.24 3.29-9.52 5.6-10.11 1.1209612-.285324 2.2998258-.24718427 3.4.11 0 0 .92-6.43 11.55-6.96.46-.03.95-.04 1.45-.04 26.953 0 12.592 30.14 18.72 48.99z" fill="#7facfa"/><path id="Shape" d="m4.95 49c1.9-7.74.06-20.63.93-32 .55-7.24 3.29-9.52 5.6-10.11.25.06.4.11.4.11s.01-.07.04-.21c.9890481-.17204528 2.005148-.09995711 2.96.21 0 0 .92-6.43 11.55-6.96 24.829 1.149 11.17 30.478 17.17 48.95z" fill="#a4c2f7"/><path id="Shape" d="m51.88 53.02c-2.3992368 1.4034143-5.0095772 2.4097292-7.73 2.98-13.912 3.5-35.7 2.3-44.14-2.98h-.01s.88-4.02 4.88-4.02c7.22 0 11.32-3.14 13.03-4.88.3326405-.3336083.5287751-.7793689.55-1.25.0485618-1.6016288-.1538888-3.2009881-.6-4.74 2.47 3.12 6.17 6.88 9.67 5.48 2.387-.911 4.785-3.477 6.37-5.48-.4386128 1.5166223-.6409858 3.0917591-.6 4.67.0174648.4872031.2215375.9490517.57 1.29 1.7 1.73 5.85 4.91 13.13 4.91 4 0 4.88 4.02 4.88 4.02z" fill="#cad9fc"/><g fill="#e8edfc"><path id="Shape" d="m48.88 53.02c-2.3992368 1.4034143-5.0095772 2.4097292-7.73 2.98-10.989728 2.5876863-22.430272 2.5876863-33.42 0-5.812-1.453-7.56-2.98-7.73-2.98 0 0 .88-4.02 4.88-4.02 7.22 0 11.32-3.14 13.03-4.88.3326405-.3336083.5287751-.7793689.55-1.25.0485618-1.6016288-.1538888-3.2009881-.6-4.74 2.47 3.12 6.17 6.88 9.67 5.48 1.0093761-.4171484 1.9447533-.9945835 2.77-1.71-.1612649.7789286.049453 1.5885292.57 2.19 1.7 1.73 5.85 4.91 13.13 4.91 4 0 4.88 4.02 4.88 4.02z"/><path id="Shape" d="m41.79 48.39c-.038.189-2.919 1.63-2.99 8.65-2.5509589.4278435-5.1258218.6983544-7.71.81 4.832-2.719 5.444-11.342 5.58-11.56 1.5824514.9711348 3.311387 1.6802686 5.12 2.1z"/><path id="Shape" d="m20.67 57.85c-2.5820515-.139351-5.1553635-.4096989-7.71-.81-.07-6.9-2.94-8.52-2.99-8.62 1.8159944-.4162619 3.5520594-1.1255491 5.14-2.1l.03.05s.75 8.79 5.53 11.48z"/><path id="Shape" d="m37.55 27.72c.65 3.18-.29 6.03-3.16 9.78-1.39 1.82-4.01 5-6.86 6.11-3.74 1.5-7.706-2.9-10.16-6.11-2.87-3.75-3.81-6.6-3.16-9.78.64-3.07.1-3.24-.21-5.96 1.7719406-2.6836627 3.0833076-5.644378 3.88-8.76 0 0 6.36 8.18 19.95 8.08-.28 3.39-.97 3.34-.28 6.64z"/><path id="Shape" d="m37.55 27.72c.65 3.18-.29 6.03-3.16 9.78-1.39 1.82-4.01 5-6.86 6.11-3.74 1.5-7.706-2.9-10.16-6.11-2.87-3.75-3.81-6.6-3.16-9.78.64-3.07.1-3.24-.21-5.96 1.7719406-2.6836627 3.0833076-5.644378 3.88-8.76 0 0 6.36 8.18 19.95 8.08-.28 3.39-.97 3.34-.28 6.64z"/></g></g><g id="Icons_copy_2" fill="#fff" transform="translate(1 1)"><path id="Shape" d="m17.88 7s.92-6.43 11.55-6.96h.006c-.5-.024-1.019-.04-1.556-.04-.5 0-.99.01-1.45.04-9.542.476-11.259 5.7-11.511 6.768.154-.026.3-.061.465-.076.8415434-.07751792 1.690096.0135927 2.496.268z"/><path id="Shape" d="m11.473 56.805c5.3095419.9007093 10.6930256 1.2918214 16.077 1.168-4.3834225-.0348674-8.7567827-.4254834-13.077-1.168-3.635-.642-8.314-1.82-11.449-3.777-.00784217-.0031187-.01585506-.0057896-.024-.008 0 0 .88-4.02 4.88-4.02h.07c1.9-7.74.06-20.629.93-32 .331-4.364 1.659-9.135 5.614-10.114-.6907186-.16288798-1.4029502-.21487076-2.11-.154-4.652.442-6.149 5.591-6.5 10.268-.87 11.369.97 24.258-.93 32h-.07c-4.004 0-4.884 4.02-4.884 4.02.00814494.0022104.01615783.0048813.024.008 3.135 1.957 7.814 3.135 11.449 3.777z"/></g><path id="Shape" d="m8.26 9.834 1.645 1.138c-1.348 1.936-1.792 4.569-2.028 7.105l-1.994-.154c.09994023-1.3906125.31941728-2.7700391.656-4.123.34712979-1.4091807.92891971-2.7499005 1.721-3.966z" fill="#fff"/><g fill="#428dff"><path id="Shape" d="m.479 54.868c7.446 4.657 22.612 5.486 31.581 4.989h.021c.023 0 .047-.007.07-.009 6.333-.357 15.935-1.651 21.259-4.983.358088-.2242362.5366103-.6493274.446-1.062-.56872-2.6390655-2.8077507-4.5882435-5.5-4.788-2.793-9.6-.592-25.142-1.481-33.128-1.223-10.987-6.775-15.887-17.995-15.887-10.007 0-12.9 4.663-13.7 6.809-2.7075121-.4954539-5.44490719.70116752-6.92 3.025-.17897282.2182106-.24917677.5058853-.19084086.7820086.0583359.2761233.23889978.5108189.49084086.6379914.45836065.2304513 1.01516221.1134483 1.342-.282.5833863-.9228063 1.4562527-1.62616361 2.482-2 1.0180703-.33895712 2.1166317-.35119444 3.142-.035l.007-.018c.0638864.03111543.1309403.05525482.2.072.26257.03769693.5293596-.03047407.7416593-.18951136.2122998-.15903728.3527131-.39590872.3903407-.65848864.014-.063 1.009-6.143 12.015-6.143 25.073 0 12.179 27.167 17.37 46.925-3.9840971-.1765377-7.7705272-1.7854952-10.663-4.531-.1713084-.1641031-.2750987-.3863071-.291-.623-.0353765-1.4149889.1378147-2.8274746.514-4.192 2.685-3.417 4.586-6.822 3.718-11.063-.582-2.786-.112-2.812.21-5.474.4-.013.8-.017 1.208-.044.3572656-.0237582.6747178-.2363105.8327754-.5575907.1580577-.3212801.132708-.702478-.0665-1-.1992079-.297522-.5420098-.4661675-.8992754-.4424093-14.259.947-21.078-7.532-21.144-7.616-.2349004-.3017131-.6212881-.4430622-.9954296-.36415s-.6705303.3642692-.7635704.73515c-.835 3.275-2.924 8.413-5.63 10.443-.3443443.2582582-.4847973.7078856-.3486833 1.1162278.136114.4083421.5182529.6837722.9486833.6837722.2164998.0008032.4272821-.0694576.6-.2.3077933-.2348937.6003805-.4890705.876-.761.2395117 1.1534479.1966269 2.3477022-.125 3.481-.866 4.236 1.038 7.648 3.718 11.057.381637 1.3855838.5538759 2.8204587.511 4.257-.0130408.2217119-.1069769.4309332-.264.588-1.57 1.6-5.022 4.205-11.015 4.541 1.5-8.029-.124-20.168.7-30.887.03354803-.5455364-.37712045-1.0169432-.92210633-1.0584867-.54498588-.0415436-1.02236352.3621686-1.07189367.9064867-.844 11.014.84 23.434-.759 31.123-2.52498363.3687411-4.55515645 2.2673434-5.092 4.762-.09165764.4123331.085649.837789.443 1.063zm14.454 2.309c-.173-3.8-1.189-6.018-2.085-7.246.8533768-.282106 1.6849363-.626361 2.488-1.03.342 2.09 1.244 5.989 3.438 8.721-1.312-.122-2.598-.267-3.841-.445zm20.045.457c2.22-2.759 3.119-6.709 3.454-8.787.8105613.4066818 1.6490079.7552269 2.509 1.043-.9 1.222-1.942 3.454-2.115 7.306-1.245.176-2.535.319-3.848.438zm16.7-4.068c-3.4243474 1.6464445-7.0785458 2.7641478-10.838 3.315.272-4.166 1.7-5.886 2.246-6.4 1.6156684.3423186 3.2624677.516248 4.914.519 1.6427921-.0020784 3.1115931 1.0232054 3.676 2.566zm-35.49-24.642c.651-3.124.164-3.577-.148-5.91 1.4168609-2.1896391 2.5287552-4.5621288 3.305-7.052 2.428 2.332 8.423 6.849 18.373 7.092-.309 2.3-.788 2.8-.148 5.866.583 2.851-.279 5.45-2.975 8.973-2.366 3.1-4.53 5.045-6.436 5.788-.8237352.326995-1.7412648.326995-2.565 0-1.9-.74-4.063-2.686-6.43-5.786-2.695-3.525-3.558-6.124-2.976-8.971zm3.432 16.9c.943-.956.9-2.044.814-3.406 4.663 4.649 8.221 4.655 12.89 0-.085 1.377-.125 2.4.835 3.374.7341584.7366142 1.541309 1.3966751 2.409 1.97-.228 1.755-1.274 7.941-4.806 10.108-3.2544329.1733334-6.5158553.1706628-9.77-.008-3.492-2.142-4.551-8.223-4.792-10.043.8714842-.5818437 1.6822319-1.2498729 2.42-1.994zm-13.682 5.176c1.60131185.0014274 3.19847694-.1627797 4.766-.49.571.549 1.945 2.28 2.214 6.351-3.71261294-.5510629-7.32025358-1.6616767-10.7-3.294.55781838-1.5674765 2.05658809-2.6017081 3.72-2.567z"/><path id="Shape" d="m7.528 15.05c-.55228475 0-1-.4477153-1-1s.44771525-1 1-1 1 .4477153 1 1c-.00273528.5511478-.44885221.9972647-1 1z"/></g></g></svg>